<svg xmlns="http://www.w3.org/2000/svg" width="300" height="420" viewBox="0 0 300 420">
  <defs>
    <linearGradient id="potion-bg" x1="0%" y1="0%" x2="0%" y2="100%">
      <stop offset="0%" style="stop-color:#1a2a1a"/>
      <stop offset="100%" style="stop-color:#0a1a0a"/>
    </linearGradient>
    <linearGradient id="liquid" x1="0%" y1="0%" x2="0%" y2="100%">
      <stop offset="0%" style="stop-color:#FF69B4"/>
      <stop offset="100%" style="stop-color:#FF1493"/>
    </linearGradient>
  </defs>
  <rect width="300" height="420" fill="url(#potion-bg)"/>
  <rect x="130" y="100" width="40" height="40" fill="#8B4513" rx="5"/>
  <path d="M120 140 L120 180 Q100 200 100 250 L100 320 Q100 350 150 350 Q200 350 200 320 L200 250 Q200 200 180 180 L180 140 Z" fill="#87CEEB" stroke="#ADD8E6" stroke-width="2" opacity="0.8"/>
  <path d="M120 200 Q100 220 100 260 L100 320 Q100 340 150 340 Q200 340 200 320 L200 260 Q200 220 180 200 Z" fill="url(#liquid)" opacity="0.9"/>
  <ellipse cx="130" cy="260" rx="15" ry="20" fill="white" opacity="0.3"/>
</svg>
