<svg xmlns="http://www.w3.org/2000/svg" width="300" height="420" viewBox="0 0 300 420">
  <defs>
    <linearGradient id="ice-bg" x1="0%" y1="0%" x2="0%" y2="100%">
      <stop offset="0%" style="stop-color:#1a3a5a"/>
      <stop offset="100%" style="stop-color:#0a1a2a"/>
    </linearGradient>
  </defs>
  <rect width="300" height="420" fill="url(#ice-bg)"/>
  <!-- Snowflakes -->
  <g fill="#ADD8E6" opacity="0.8">
    <polygon points="150,100 155,120 175,120 160,135 165,155 150,145 135,155 140,135 125,120 145,120"/>
    <polygon points="80,180 83,193 96,193 86,202 89,215 80,208 71,215 74,202 64,193 77,193" transform="scale(1.2) translate(-10,-30)"/>
    <polygon points="220,200 223,213 236,213 226,222 229,235 220,228 211,235 214,222 204,213 217,213" transform="scale(1.1) translate(-20,-20)"/>
    <polygon points="100,300 103,313 116,313 106,322 109,335 100,328 91,335 94,322 84,313 97,313"/>
    <polygon points="200,320 203,333 216,333 206,342 209,355 200,348 191,355 194,342 184,333 197,333" transform="scale(0.9) translate(25,-10)"/>
  </g>
  <!-- Ice crystals -->
  <polygon points="150,150 170,220 150,280 130,220" fill="#87CEEB" opacity="0.6"/>
  <polygon points="100,200 140,230 100,300 80,250" fill="#B0E0E6" opacity="0.5"/>
  <polygon points="200,200 160,230 200,300 220,250" fill="#B0E0E6" opacity="0.5"/>
</svg>
